:FULLY-SPECIFIED
:FORCE-ALL-JOINTS-BE-3DOF
:DEGREES
577
root 7.06751 16.2535 -3.48575 -168.47 73.6857 -174.71
lfemur -18.3942 3.84878 -18.1228
ltibia 48.6553 -0 0
lfoot -34.255 5.50869 0.0540057
ltoes -2.41642 0 0
rfemur -46.5411 -8.84916 10.5569
rtibia 42.112 -0 0
rfoot 14.0721 9.20743 -0.0806444
rtoes -30.2212 0 0
lowerback 6.47381 -0.85668 -2.99705
upperback 2.55114 -1.18829 3.37883
thorax -0.862652 -0.592088 5.27464
lowerneck -4.58438 -13.7926 -4.27396
upperneck 10.4364 -18.7436 5.71698
head 4.82153 -9.05294 1.24015
lclavicle 3.29983e-014 -3.57812e-014 0
lhumerus -38.3204 -17.1534 93.3905
lradius 53.8452 -0 0
lwrist 22.1554 0 0
lhand -21.7135 -4.84259 0.00378862
lfingers 7.12502 -0 0
lthumb 4.68586 25.0968 0.00584774
rclavicle 3.29983e-014 -3.57812e-014 0
rhumerus 26.7762 17.4111 -73.577
rradius 134.748 -0 0
rwrist -43.2083 0 0
rhand -26.1102 -20.39 0.00202205
rfingers 7.12502 -0 0
rthumb 0.439307 -50.3703 0.00198555
578
root 7.00498 16.2689 -3.47405 -167.899 74.4873 -174.043
lfemur -18.2108 3.82615 -18.1668
ltibia 48.2117 -0 0
lfoot -33.9968 6.07398 0.0580575
ltoes -2.16007 0 0
rfemur -46.5162 -9.17582 10.8699
rtibia 43.6181 -0 0
rfoot 13.9298 8.87963 -0.0622205
rtoes -29.2355 0 0
lowerback 6.31973 -0.853979 -3.17865
upperback 2.52139 -1.19882 3.29479
thorax -0.803458 -0.600931 5.28749
lowerneck -4.64395 -13.7737 -4.26651
upperneck 10.5784 -18.7342 5.7772
head 4.87944 -9.03902 1.24664
lclavicle 3.29983e-014 -3.57812e-014 0
lhumerus -37.263 -17.8988 92.5737
lradius 53.7317 -0 0
lwrist 22.4148 0 0
lhand -21.6236 -4.6191 0.00229728
lfingers 7.12502 -0 0
lthumb 4.77272 25.3198 0.00468378
rclavicle 3.29983e-014 -3.57812e-014 0
rhumerus 26.7339 17.4752 -73.4829
rradius 134.848 -0 0
rwrist -43.1262 0 0
rhand -26.0433 -20.2291 0.00196972
rfingers 7.12502 -0 0
rthumb 0.503896 -50.2093 0.00193361
579
root 6.94232 16.2821 -3.46251 -167.263 75.3063 -173.309
lfemur -18.0426 3.81063 -18.2124
ltibia 47.8045 -0 0
lfoot -33.7418 6.63798 0.0607747
ltoes -1.88602 0 0
rfemur -46.5003 -9.51168 11.1844
rtibia 45.175 -0 0
rfoot 13.7532 8.55913 -0.0433241
rtoes -28.2317 0 0
lowerback 6.16976 -0.851895 -3.35771
upperback 2.49426 -1.2087 3.21201
thorax -0.743684 -0.609195 5.30011
lowerneck -4.70413 -13.7532 -4.25729
upperneck 10.7226 -18.7232 5.83998
head 4.93836 -9.02395 1.25374
lclavicle 3.29983e-014 -3.57812e-014 0
lhumerus -36.1814 -18.6488 91.7487
lradius 53.6214 -0 0
lwrist 22.6848 0 0
lhand -21.5267 -4.3875 0.000786393
lfingers 7.12502 -0 0
lthumb 4.86632 25.5504 0.00345341
rclavicle 3.29983e-014 -3.57812e-014 0
rhumerus 26.6652 17.5333 -73.4049
rradius 134.935 -0 0
rwrist -43.0595 0 0
rhand -25.9805 -20.0719 0.00182888
rfingers 7.12502 -0 0
rthumb 0.564625 -50.0518 0.0017954
580
root 6.87981 16.2935 -3.45137 -166.541 76.1486 -172.488
lfemur -17.8884 3.80969 -18.2603
ltibia 47.4287 -0 0
lfoot -33.4922 7.20134 0.0620086
ltoes -1.59337 0 0
rfemur -46.4943 -9.85426 11.5028
rtibia 46.7588 -0 0
rfoot 13.5496 8.25769 -0.0251119
rtoes -27.2167 0 0
lowerback 6.02396 -0.851399 -3.53314
upperback 2.46857 -1.21933 3.13039
thorax -0.684518 -0.617578 5.31188
lowerneck -4.76558 -13.7298 -4.24518
upperneck 10.8685 -18.709 5.9034
head 4.99787 -9.007 1.26091
lclavicle 3.29983e-014 -3.57812e-014 0
lhumerus -35.0853 -19.399 90.925
lradius 53.5161 -0 0
lwrist 22.9587 0 0
lhand -21.421 -4.15052 -0.000665879
lfingers 7.12502 -0 0
lthumb 4.96846 25.7859 0.00221879
rclavicle 3.29983e-014 -3.57812e-014 0
rhumerus 26.5748 17.58 -73.3404
rradius 135.003 -0 0
rwrist -43.0124 0 0
rhand -25.922 -19.9205 0.00161236
rfingers 7.12502 -0 0
rthumb 0.621129 -49.9003 0.00158346
581
root 6.81776 16.3036 -3.4409 -165.703 77.0197 -171.554
lfemur -17.747 3.8308 -18.311
ltibia 47.0787 -0 0
lfoot -33.2502 7.76474 0.0616459
ltoes -1.28119 0 0
rfemur -46.4992 -10.201 11.8277
rtibia 48.3453 -0 0
rfoot 13.3258 7.98703 -0.00856026
rtoes -26.1968 0 0
lowerback 5.88237 -0.853457 -3.70381
upperback 2.44312 -1.23212 3.04982
thorax -0.627148 -0.626777 5.32216
lowerneck -4.82894 -13.7025 -4.22911
upperneck 11.0157 -18.6898 5.96552
head 5.05755 -8.98745 1.26757
lclavicle 3.29983e-014 -3.57812e-014 0
lhumerus -33.9855 -20.1456 90.1128
lradius 53.4177 -0 0
lwrist 23.2299 0 0
lhand -21.3045 -3.9109 -0.00198936
lfingers 7.12502 -0 0
lthumb 5.08093 26.0233 0.00103512
rclavicle 3.29983e-014 -3.57812e-014 0
rhumerus 26.4676 17.6101 -73.2868
rradius 135.048 -0 0
rwrist -42.9892 0 0
rhand -25.8682 -19.7772 0.00133831
rfingers 7.12502 -0 0
rthumb 0.673039 -49.7567 0.00131545
582
root 6.75644 16.3129 -3.43133 -164.709 77.9249 -170.468
lfemur -17.6171 3.88143 -18.3649
ltibia 46.7493 -0 0
lfoot -33.0177 8.32886 0.0596094
ltoes -0.948566 0 0
rfemur -46.5161 -10.5495 12.1618
rtibia 49.9106 -0 0
rfoot 13.0891 7.75893 0.00554358
rtoes -25.1788 0 0
lowerback 5.74506 -0.859028 -3.86862
upperback 2.41674 -1.24845 2.97021
thorax -0.572762 -0.637487 5.33034
lowerneck -4.89486 -13.6702 -4.20797
upperneck 11.1634 -18.6642 6.02443
head 5.11698 -8.96455 1.27319
lclavicle 3.29983e-014 -3.57812e-014 0
lhumerus -32.8928 -20.8856 89.3227
lradius 53.3281 -0 0
lwrist 23.4919 0 0
lhand -21.1755 -3.67137 -0.00312017
lfingers 7.12502 -0 0
lthumb 5.20554 26.2599 -4.75095e-005
rclavicle 3.29983e-014 -3.57812e-014 0
rhumerus 26.3482 17.6185 -73.2416
rradius 135.065 -0 0
rwrist -42.9943 0 0
rhand -25.8196 -19.6441 0.00102908
rfingers 7.12502 -0 0
rthumb 0.719989 -49.6234 0.00101313
